<svg viewBox="0 0 56 32" width="25px">
<path d="M1.882 0.941h52.706c1.040 0 1.882 0.843 1.882 1.882s-0.843 1.882-1.882 1.882h-52.706c-1.040 0-1.882-0.843-1.882-1.882s0.843-1.882 1.882-1.882z"></path>
<path d="M1.882 14.118h52.706c1.040 0 1.882 0.843 1.882 1.882s-0.843 1.882-1.882 1.882h-52.706c-1.040 0-1.882-0.843-1.882-1.882s0.843-1.882 1.882-1.882z"></path>
<path d="M1.882 27.294h52.706c1.040 0 1.882 0.843 1.882 1.882s-0.843 1.882-1.882 1.882h-52.706c-1.040 0-1.882-0.843-1.882-1.882s0.843-1.882 1.882-1.882z"></path>
</svg>